<?xml version="1.0" encoding="utf-8"?>
<!-- Generator: Adobe Illustrator 16.0.0, SVG Export Plug-In . SVG Version: 6.00 Build 0)  -->
<!DOCTYPE svg PUBLIC "-//W3C//DTD SVG 1.1//EN" "http://www.w3.org/Graphics/SVG/1.1/DTD/svg11.dtd">
<svg version="1.1" id="Layer_1" xmlns="http://www.w3.org/2000/svg" xmlns:xlink="http://www.w3.org/1999/xlink" x="0px" y="0px"
	 width="2560px" height="1440px" viewBox="0 0 2560 1440" enable-background="new 0 0 2560 1440" xml:space="preserve">
<g>
	<g>
		<path fill="#CCCCCC" d="M1357.092,1121.419c-20.278-20.022-32.353-52.769-32.353-87.741v-34.993h-272.033v34.993
			c0,34.973-12.077,67.719-32.354,87.741l-31.861,31.436h400.465L1357.092,1121.419z"/>
		<rect x="988.491" y="1152.854" fill="#CCCCCC" width="400.465" height="10.125"/>
		<path fill="#444444" d="M1760.519,956.912V257.161c0-12.408-10.061-22.479-22.492-22.479H639.413
			c-12.424,0-22.48,10.072-22.48,22.479v699.751H1760.519z"/>
		<path fill="#CCCCCC" d="M616.933,888.897V989.57c0,12.426,10.056,22.498,22.48,22.498h1098.613
			c12.432,0,22.492-10.072,22.492-22.498V888.897H616.933z"/>
		<linearGradient id="SVGID_1_" gradientUnits="userSpaceOnUse" x1="699.5713" y1="882.4893" x2="2079.0759" y2="-26.1837">
			<stop  offset="0.0269" style="stop-color:#E8E8E9"/>
			<stop  offset="0.8871" style="stop-color:#FFFFFF"/>
		</linearGradient>
		<rect x="651.731" y="270.142" fill="url(#SVGID_1_)" width="1073.044" height="580.909"/>
	</g>
	<g>
		<g>
			<path fill="#444444" d="M2382.453,1159.844V708.413c0-8.468-6.866-15.351-15.324-15.351h-749.39
				c-8.463,0-15.331,6.883-15.331,15.351v451.431H2382.453z"/>
			<linearGradient id="SVGID_2_" gradientUnits="userSpaceOnUse" x1="1658.7832" y1="1134.9414" x2="2599.7471" y2="515.1331">
				<stop  offset="0.0269" style="stop-color:#E8E8E9"/>
				<stop  offset="0.8871" style="stop-color:#FFFFFF"/>
			</linearGradient>
			<rect x="1626.146" y="717.269" fill="url(#SVGID_2_)" width="731.938" height="396.222"/>
			<g>
				<path fill="#CCCCCC" d="M1517.624,1150.921v14.672c0,3.957,51.377,17.724,58.435,17.724h832.736
					c7.066,0,58.443-13.767,58.443-17.724v-14.672H1517.624z"/>
				<path fill="#CCCCCC" d="M2467.238,1162.945c0,3.972-6.331,7.197-14.15,7.197h-921.309c-7.825,0-14.155-3.226-14.155-7.197
					v-10.788c0-3.974,6.33-7.179,14.155-7.179h921.309c7.819,0,14.15,3.205,14.15,7.179V1162.945z"/>
			</g>
		</g>
	</g>
	<g>
		<g>
			<path fill="#444444" d="M301.486,1152.421c0,5.889-4.776,10.664-10.671,10.664H107.417c-5.89,0-10.656-4.775-10.656-10.664
				V803.476c0-5.892,4.767-10.664,10.656-10.664h183.399c5.895,0,10.671,4.772,10.671,10.664V1152.421z"/>
			<linearGradient id="SVGID_3_" gradientUnits="userSpaceOnUse" x1="99.2441" y1="1121.2578" x2="344.8429" y2="768.8373">
				<stop  offset="0.0269" style="stop-color:#E8E8E9"/>
				<stop  offset="0.8871" style="stop-color:#FFFFFF"/>
			</linearGradient>
			<rect x="104.112" y="821.391" fill="url(#SVGID_3_)" width="190.007" height="313.114"/>
		</g>
	</g>
	<g>
		<g>
			<path fill="#444444" d="M764.063,1142.4c0,10.926-8.854,19.777-19.775,19.777H403.902c-10.929,0-19.783-8.852-19.783-19.777
				V669.223c0-10.926,8.854-19.778,19.783-19.778h340.386c10.921,0,19.775,8.852,19.775,19.778V1142.4z"/>
			<linearGradient id="SVGID_4_" gradientUnits="userSpaceOnUse" x1="419.5815" y1="1127.5234" x2="799.5402" y2="582.3041">
				<stop  offset="0.0269" style="stop-color:#E8E8E9"/>
				<stop  offset="0.8871" style="stop-color:#FFFFFF"/>
			</linearGradient>
			<rect x="397.773" y="684.053" fill="url(#SVGID_4_)" width="352.635" height="443.516"/>
		</g>
	</g>
</g>
</svg>
